<?xml version="1.0" standalone="no"?>
<!DOCTYPE svg PUBLIC "-//W3C//DTD SVG 20010904//EN"
 "http://www.w3.org/TR/2001/REC-SVG-20010904/DTD/svg10.dtd">
<svg version="1.0" xmlns="http://www.w3.org/2000/svg"
 width="400.000000pt" height="400.000000pt" viewBox="0 0 400.000000 400.000000"
 preserveAspectRatio="xMidYMid meet">
<metadata>
Created by potrace 1.14, written by Peter Selinger 2001-2017
</metadata>
<g transform="translate(0.000000,400.000000) scale(0.100000,-0.100000)"
fill="#000000" stroke="none">
<path d="M1665 3641 c-420 -77 -708 -291 -813 -606 -44 -131 -51 -198 -67
-680 -16 -473 -22 -537 -61 -634 -25 -63 -91 -115 -187 -147 -134 -45 -165
-96 -153 -254 26 -348 236 -616 546 -695 36 -9 120 -19 187 -22 l122 -6 37
-55 c79 -119 193 -219 316 -277 102 -48 176 -66 303 -72 92 -5 124 -2 195 16
174 44 326 139 432 270 33 41 65 85 71 98 9 20 18 23 62 23 76 0 215 26 292
55 198 75 364 241 438 440 36 94 55 193 55 281 0 117 -17 139 -147 188 -95 36
-142 72 -176 134 -54 99 -58 144 -67 677 -6 419 -10 499 -25 550 -102 356
-388 599 -825 702 -145 34 -390 41 -535 14z m-8 -744 c22 -15 50 -46 64 -70
22 -38 24 -56 27 -178 4 -155 -5 -204 -50 -255 -98 -111 -267 -94 -335 35 -21
41 -23 56 -23 195 0 172 12 214 72 259 51 39 77 47 144 44 48 -2 71 -9 101
-30z m701 18 c47 -20 79 -50 104 -98 17 -35 19 -56 16 -207 l-3 -168 -31 -39
c-96 -121 -276 -106 -345 29 -16 32 -19 60 -19 193 0 133 3 161 19 193 49 96
161 137 259 97z"/>
</g>
</svg>
